<?xml version="1.0" encoding="UTF-8" standalone="no"?>
<!-- Created with Inkscape (http://www.inkscape.org/) -->

<svg
   width="200mm"
   height="200mm"
   viewBox="0 0 200 200"
   version="1.1"
   id="svg1"
   inkscape:version="1.4.2 (f4327f4, 2025-05-13)"
   sodipodi:docname="BarperIcon.svg"
   xmlns:inkscape="http://www.inkscape.org/namespaces/inkscape"
   xmlns:sodipodi="http://sodipodi.sourceforge.net/DTD/sodipodi-0.dtd"
   xmlns="http://www.w3.org/2000/svg"
   xmlns:svg="http://www.w3.org/2000/svg">
  <sodipodi:namedview
     id="namedview1"
     pagecolor="#ffffff"
     bordercolor="#000000"
     borderopacity="0.25"
     inkscape:showpageshadow="2"
     inkscape:pageopacity="0.0"
     inkscape:pagecheckerboard="0"
     inkscape:deskcolor="#d1d1d1"
     inkscape:document-units="mm"
     inkscape:zoom="1.3772587"
     inkscape:cx="396.43968"
     inkscape:cy="329.27728"
     inkscape:window-width="1920"
     inkscape:window-height="991"
     inkscape:window-x="-9"
     inkscape:window-y="301"
     inkscape:window-maximized="1"
     inkscape:current-layer="svg1" />
  <defs
     id="defs1" />
  <path
     style="fill:#0fa2d8;fill-opacity:1;stroke-width:0.297811"
     d="m 66.298002,152.11265 c 0,0 -32.900353,8.70195 -36.462812,-9.14819 C 26.272732,125.11432 22.779247,124.25574 19.357371,111.50358 17.68092,105.25602 18.831944,99.433722 11.603784,98.562212 4.8180576,97.744058 2.173746,103.69413 4.6884227,111.28045 c 2.5146776,7.5863 15.2976173,29.22961 14.4593913,39.9397 -0.755566,9.65395 40.02527,18.07328 52.598654,10.93321 12.573384,-7.14006 -5.448466,-10.04071 -5.448466,-10.04071 z"
     id="path3"
     sodipodi:nodetypes="cssssssc" />
  <path
     style="fill:#0fa2d8;fill-opacity:1;stroke-width:0.376883"
     d="m 175.19304,62.545886 c 0,0 2.31087,-36.24871 -7.54045,-39.806129 -9.85131,-3.55742 -13.49583,30.666452 -13.49583,30.666452 z"
     id="path2"
     sodipodi:nodetypes="cscc" />
  <path
     style="fill:#0fa2d8;fill-opacity:1;stroke-width:0.376883"
     d="m 68.870575,60.816908 c 0,0 -3.2714,-35.672384 6.579913,-39.229803 9.851311,-3.55742 13.111605,32.203321 13.111605,32.203321 z"
     id="path1"
     sodipodi:nodetypes="cscc" />
  <g
     inkscape:label="Layer 1"
     inkscape:groupmode="layer"
     id="layer1">
    <rect
       style="fill:#0b9c4b;fill-opacity:1;stroke-width:0.296776"
       id="rect1"
       width="113.34411"
       height="113.34411"
       x="65.316948"
       y="53.021992"
       ry="17.669615" />
  </g>
  <ellipse
     style="fill:#ffffff;fill-opacity:1;stroke-width:0.177366"
     id="path4"
     cx="99.992561"
     cy="81.742241"
     rx="5.8593149"
     ry="15.272637" />
  <ellipse
     style="fill:#ffffff;fill-opacity:1;stroke-width:0.177366"
     id="path4-8"
     cx="143.85176"
     cy="81.374779"
     rx="5.8593149"
     ry="15.272637" />
  <path
     style="fill:#ffffff;fill-opacity:0;stroke:#ffffff;stroke-width:4.26704;stroke-dasharray:none;stroke-opacity:1"
     d="m 87.701416,119.54179 c 0,0 3.430946,24.07167 16.392304,23.83567 12.96135,-0.236 18.67959,-22.89169 18.67959,-22.89169 0,0 5.71824,24.30767 22.30114,24.07167 16.58291,-0.23598 16.77352,-24.07167 16.77352,-24.07167"
     id="path5" />
</svg>
